<?xml version="1.0" standalone="no"?><!DOCTYPE svg PUBLIC "-//W3C//DTD SVG 1.1//EN" "http://www.w3.org/Graphics/SVG/1.1/DTD/svg11.dtd"><svg t="1614081202994" class="icon" viewBox="0 0 1024 1024" version="1.1" xmlns="http://www.w3.org/2000/svg" p-id="6990" xmlns:xlink="http://www.w3.org/1999/xlink" width="200" height="200"><defs><style type="text/css"></style></defs><path d="M512.930909 666.065455v215.458909a14.801455 14.801455 0 0 0 14.894546 14.801454h108.916363a14.801455 14.801455 0 0 0 14.848-14.801454V594.385455l-110.778182 95.418181-27.834181-23.738181zM47.383273 881.477818a14.754909 14.754909 0 0 0 14.848 14.848h108.916363a14.801455 14.801455 0 0 0 14.848-14.848v-219.741091l-138.612363 114.315637v105.425454z m232.773818-297.472v297.472a14.754909 14.754909 0 0 0 14.848 14.848h108.962909a14.801455 14.801455 0 0 0 14.801455-14.848v-295.610182l-69.259637-59.019636-69.352727 57.157818z m465.687273 297.472a14.754909 14.754909 0 0 0 14.801454 14.848h109.009455a14.801455 14.801455 0 0 0 14.801454-14.848V393.914182l-138.612363 119.389091v368.174545z m-23.924364-740.072727a4.933818 4.933818 0 0 0-3.490909 8.471273l104.168727 102.446545-281.786182 242.641455-191.301818-162.909091L46.545455 581.864727v107.985455l302.917818-249.949091 191.301818 162.909091 340.386909-293.003637 86.109091 84.666182a4.933818 4.933818 0 0 0 8.378182-3.537454V146.385455a4.933818 4.933818 0 0 0-4.933818-4.933819h-248.832z" p-id="6991"></path></svg>