<?xml version="1.0" standalone="no"?><!DOCTYPE svg PUBLIC "-//W3C//DTD SVG 1.1//EN" "http://www.w3.org/Graphics/SVG/1.1/DTD/svg11.dtd"><svg t="1614080988041" class="icon" viewBox="0 0 1024 1024" version="1.1" xmlns="http://www.w3.org/2000/svg" p-id="3522" xmlns:xlink="http://www.w3.org/1999/xlink" width="200" height="200"><defs><style type="text/css"></style></defs><path d="M756.10247803 900.30060959h-8.2654953L512.36306382 720.80804062l-236.22322083 179.49256897H267.89752197A70.89014053 70.89014053 0 0 1 197.08462905 829.48771667V194.51228333A70.90559006 70.90559006 0 0 1 267.89752197 123.69939041h488.20495606A70.90559006 70.90559006 0 0 1 826.91537095 194.51228333v634.97543334a70.89014053 70.89014053 0 0 1-70.81289293 70.81289292z m-488.20495606-727.6725769A21.92287446 21.92287446 0 0 0 246.01327134 194.51228333v634.97543334a21.93059921 21.93059921 0 0 0 15.07101059 20.79505921l235.1726532-178.69691849 16.12157821-16.12930297 16.15247726 16.13702774 234.400177 178.68146896A21.92287446 21.92287446 0 0 0 777.98672866 829.48771667V194.51228333A21.92287446 21.92287446 0 0 0 756.10247803 172.62803269z" fill="#363F4D" p-id="3523"></path><path d="M512.3862381 536.85055923c-69.71597671 0-126.43117905-56.71520234-126.43117905-126.43117904s56.71520234-126.43117905 126.43117904-126.43117905 126.43117905 56.71520234 126.43117905 126.43117904-56.71520234 126.43117905-126.43117904 126.43117905z m-1e-8-203.93371581A77.50253677 77.50253677 0 1 0 589.88877488 410.41938018 77.59523392 77.59523392 0 0 0 512.3862381 332.91684342z" fill="#363F4D" p-id="3524"></path></svg>